<mxfile host="app.diagrams.net" modified="2024-01-06T05:31:55.820Z" agent="Mozilla/5.0 (Windows NT 10.0; Win64; x64) AppleWebKit/537.36 (KHTML, like Gecko) Chrome/120.0.0.0 Safari/537.36" etag="j2XqjVUeNCiLAUs6oarg" version="22.1.17" type="device">
  <diagram name="Page-1" id="KaP859XLAavRz01cfM0h">
    <mxGraphModel dx="986" dy="522" grid="1" gridSize="10" guides="1" tooltips="1" connect="1" arrows="1" fold="1" page="1" pageScale="1" pageWidth="827" pageHeight="1169" math="0" shadow="0">
      <root>
        <mxCell id="0" />
        <mxCell id="1" parent="0" />
        <mxCell id="PjFeJk9aAy8ltDYwzz_5-23" style="edgeStyle=orthogonalEdgeStyle;rounded=0;orthogonalLoop=1;jettySize=auto;html=1;exitX=1;exitY=0.5;exitDx=0;exitDy=0;entryX=0;entryY=0.5;entryDx=0;entryDy=0;" parent="1" source="PjFeJk9aAy8ltDYwzz_5-1" target="PjFeJk9aAy8ltDYwzz_5-16" edge="1">
          <mxGeometry relative="1" as="geometry" />
        </mxCell>
        <mxCell id="PjFeJk9aAy8ltDYwzz_5-1" value="Recipient" style="rounded=0;whiteSpace=wrap;html=1;" parent="1" vertex="1">
          <mxGeometry x="80" y="400" width="120" height="60" as="geometry" />
        </mxCell>
        <mxCell id="PjFeJk9aAy8ltDYwzz_5-13" value="Recipient Request Logs" style="shape=cylinder3;whiteSpace=wrap;html=1;boundedLbl=1;backgroundOutline=1;size=15;" parent="1" vertex="1">
          <mxGeometry x="780" y="220" width="60" height="80" as="geometry" />
        </mxCell>
        <mxCell id="PjFeJk9aAy8ltDYwzz_5-15" value="Blood Request And Dispatch Management" style="text;html=1;align=center;verticalAlign=middle;resizable=0;points=[];autosize=1;strokeColor=none;fillColor=none;" parent="1" vertex="1">
          <mxGeometry x="495" y="178" width="250" height="30" as="geometry" />
        </mxCell>
        <mxCell id="PjFeJk9aAy8ltDYwzz_5-27" style="edgeStyle=orthogonalEdgeStyle;rounded=0;orthogonalLoop=1;jettySize=auto;html=1;exitX=1;exitY=0.5;exitDx=0;exitDy=0;entryX=0;entryY=0.5;entryDx=0;entryDy=0;" parent="1" source="PjFeJk9aAy8ltDYwzz_5-16" target="PjFeJk9aAy8ltDYwzz_5-17" edge="1">
          <mxGeometry relative="1" as="geometry" />
        </mxCell>
        <mxCell id="PjFeJk9aAy8ltDYwzz_5-16" value="Record and Validate Request&lt;br&gt;2.1" style="ellipse;whiteSpace=wrap;html=1;aspect=fixed;" parent="1" vertex="1">
          <mxGeometry x="490" y="280" width="80" height="80" as="geometry" />
        </mxCell>
        <mxCell id="PjFeJk9aAy8ltDYwzz_5-34" style="edgeStyle=orthogonalEdgeStyle;rounded=0;orthogonalLoop=1;jettySize=auto;html=1;exitX=0;exitY=1;exitDx=0;exitDy=0;entryX=1;entryY=0.5;entryDx=0;entryDy=0;" parent="1" source="PjFeJk9aAy8ltDYwzz_5-17" target="PjFeJk9aAy8ltDYwzz_5-18" edge="1">
          <mxGeometry relative="1" as="geometry" />
        </mxCell>
        <mxCell id="PjFeJk9aAy8ltDYwzz_5-55" style="edgeStyle=orthogonalEdgeStyle;rounded=0;orthogonalLoop=1;jettySize=auto;html=1;exitX=0.5;exitY=1;exitDx=0;exitDy=0;entryX=0.5;entryY=0;entryDx=0;entryDy=0;" parent="1" source="PjFeJk9aAy8ltDYwzz_5-17" target="PjFeJk9aAy8ltDYwzz_5-1" edge="1">
          <mxGeometry relative="1" as="geometry" />
        </mxCell>
        <mxCell id="PjFeJk9aAy8ltDYwzz_5-17" value="Blood Matching and Reservation&lt;br&gt;2.2" style="ellipse;whiteSpace=wrap;html=1;aspect=fixed;" parent="1" vertex="1">
          <mxGeometry x="690" y="280" width="80" height="80" as="geometry" />
        </mxCell>
        <mxCell id="PjFeJk9aAy8ltDYwzz_5-38" style="edgeStyle=orthogonalEdgeStyle;rounded=0;orthogonalLoop=1;jettySize=auto;html=1;exitX=1;exitY=1;exitDx=0;exitDy=0;" parent="1" source="PjFeJk9aAy8ltDYwzz_5-18" target="PjFeJk9aAy8ltDYwzz_5-39" edge="1">
          <mxGeometry relative="1" as="geometry">
            <mxPoint x="870" y="458.1111111111111" as="targetPoint" />
          </mxGeometry>
        </mxCell>
        <mxCell id="PjFeJk9aAy8ltDYwzz_5-42" style="edgeStyle=orthogonalEdgeStyle;rounded=0;orthogonalLoop=1;jettySize=auto;html=1;exitX=0.5;exitY=1;exitDx=0;exitDy=0;entryX=0;entryY=0.5;entryDx=0;entryDy=0;" parent="1" source="PjFeJk9aAy8ltDYwzz_5-18" target="PjFeJk9aAy8ltDYwzz_5-19" edge="1">
          <mxGeometry relative="1" as="geometry" />
        </mxCell>
        <mxCell id="PjFeJk9aAy8ltDYwzz_5-18" value="Request Prioritization and Confirmation&lt;br&gt;2.3" style="ellipse;whiteSpace=wrap;html=1;aspect=fixed;" parent="1" vertex="1">
          <mxGeometry x="490" y="390" width="80" height="80" as="geometry" />
        </mxCell>
        <mxCell id="PjFeJk9aAy8ltDYwzz_5-47" style="edgeStyle=orthogonalEdgeStyle;rounded=0;orthogonalLoop=1;jettySize=auto;html=1;exitX=0;exitY=1;exitDx=0;exitDy=0;entryX=1;entryY=0.5;entryDx=0;entryDy=0;" parent="1" source="PjFeJk9aAy8ltDYwzz_5-19" target="PjFeJk9aAy8ltDYwzz_5-20" edge="1">
          <mxGeometry relative="1" as="geometry">
            <Array as="points">
              <mxPoint x="732" y="680" />
            </Array>
          </mxGeometry>
        </mxCell>
        <mxCell id="PjFeJk9aAy8ltDYwzz_5-19" value="Prepare and schdule Blood Dispatch&lt;br&gt;2.4" style="ellipse;whiteSpace=wrap;html=1;aspect=fixed;" parent="1" vertex="1">
          <mxGeometry x="720" y="520" width="80" height="80" as="geometry" />
        </mxCell>
        <mxCell id="PjFeJk9aAy8ltDYwzz_5-50" style="edgeStyle=orthogonalEdgeStyle;rounded=0;orthogonalLoop=1;jettySize=auto;html=1;exitX=0;exitY=0.5;exitDx=0;exitDy=0;entryX=0.5;entryY=1;entryDx=0;entryDy=0;" parent="1" source="PjFeJk9aAy8ltDYwzz_5-20" target="PjFeJk9aAy8ltDYwzz_5-1" edge="1">
          <mxGeometry relative="1" as="geometry" />
        </mxCell>
        <mxCell id="PjFeJk9aAy8ltDYwzz_5-20" value="Recipient Notification and feeback&lt;br&gt;2.5" style="ellipse;whiteSpace=wrap;html=1;aspect=fixed;" parent="1" vertex="1">
          <mxGeometry x="470" y="640" width="80" height="80" as="geometry" />
        </mxCell>
        <mxCell id="PjFeJk9aAy8ltDYwzz_5-24" value="Blood Request form" style="text;html=1;align=center;verticalAlign=middle;resizable=0;points=[];autosize=1;strokeColor=none;fillColor=none;" parent="1" vertex="1">
          <mxGeometry x="195" y="388" width="130" height="30" as="geometry" />
        </mxCell>
        <mxCell id="PjFeJk9aAy8ltDYwzz_5-25" style="edgeStyle=orthogonalEdgeStyle;rounded=0;orthogonalLoop=1;jettySize=auto;html=1;exitX=0.5;exitY=0;exitDx=0;exitDy=0;entryX=0;entryY=0.5;entryDx=0;entryDy=0;entryPerimeter=0;" parent="1" source="PjFeJk9aAy8ltDYwzz_5-16" target="PjFeJk9aAy8ltDYwzz_5-13" edge="1">
          <mxGeometry relative="1" as="geometry" />
        </mxCell>
        <mxCell id="PjFeJk9aAy8ltDYwzz_5-26" value="Recipient Request details&lt;br&gt;" style="text;html=1;strokeColor=none;fillColor=none;align=center;verticalAlign=middle;whiteSpace=wrap;rounded=0;" parent="1" vertex="1">
          <mxGeometry x="620" y="230" width="110" height="30" as="geometry" />
        </mxCell>
        <mxCell id="PjFeJk9aAy8ltDYwzz_5-28" value="Validate Request" style="text;html=1;align=center;verticalAlign=middle;resizable=0;points=[];autosize=1;strokeColor=none;fillColor=none;" parent="1" vertex="1">
          <mxGeometry x="570" y="300" width="110" height="30" as="geometry" />
        </mxCell>
        <mxCell id="PjFeJk9aAy8ltDYwzz_5-29" value="Blood Inventory Database" style="shape=cylinder3;whiteSpace=wrap;html=1;boundedLbl=1;backgroundOutline=1;size=15;" parent="1" vertex="1">
          <mxGeometry x="920" y="280" width="60" height="80" as="geometry" />
        </mxCell>
        <mxCell id="PjFeJk9aAy8ltDYwzz_5-31" value="Blood Type and Quantity" style="text;html=1;align=center;verticalAlign=middle;resizable=0;points=[];autosize=1;strokeColor=none;fillColor=none;" parent="1" vertex="1">
          <mxGeometry x="770" y="300" width="150" height="30" as="geometry" />
        </mxCell>
        <mxCell id="PjFeJk9aAy8ltDYwzz_5-32" value="" style="endArrow=classic;startArrow=classic;html=1;rounded=0;entryX=0;entryY=0.5;entryDx=0;entryDy=0;entryPerimeter=0;exitX=1;exitY=0.5;exitDx=0;exitDy=0;" parent="1" source="PjFeJk9aAy8ltDYwzz_5-17" target="PjFeJk9aAy8ltDYwzz_5-29" edge="1">
          <mxGeometry width="50" height="50" relative="1" as="geometry">
            <mxPoint x="510" y="420" as="sourcePoint" />
            <mxPoint x="560" y="370" as="targetPoint" />
          </mxGeometry>
        </mxCell>
        <mxCell id="PjFeJk9aAy8ltDYwzz_5-37" value="Reservation&lt;br&gt;Confirmation" style="text;html=1;strokeColor=none;fillColor=none;align=center;verticalAlign=middle;whiteSpace=wrap;rounded=0;rotation=-90;" parent="1" vertex="1">
          <mxGeometry x="580" y="380" width="60" height="30" as="geometry" />
        </mxCell>
        <mxCell id="PjFeJk9aAy8ltDYwzz_5-39" value="Pendind Request Database" style="shape=cylinder3;whiteSpace=wrap;html=1;boundedLbl=1;backgroundOutline=1;size=15;" parent="1" vertex="1">
          <mxGeometry x="920" y="418.0011111111111" width="60" height="80" as="geometry" />
        </mxCell>
        <mxCell id="PjFeJk9aAy8ltDYwzz_5-40" value="Priority Status" style="text;html=1;align=center;verticalAlign=middle;resizable=0;points=[];autosize=1;strokeColor=none;fillColor=none;" parent="1" vertex="1">
          <mxGeometry x="690" y="430" width="100" height="30" as="geometry" />
        </mxCell>
        <mxCell id="PjFeJk9aAy8ltDYwzz_5-43" value="Confirmed Request with priority" style="text;html=1;align=center;verticalAlign=middle;resizable=0;points=[];autosize=1;strokeColor=none;fillColor=none;" parent="1" vertex="1">
          <mxGeometry x="525" y="530" width="190" height="30" as="geometry" />
        </mxCell>
        <mxCell id="PjFeJk9aAy8ltDYwzz_5-44" value="Dispatch Logs" style="shape=cylinder3;whiteSpace=wrap;html=1;boundedLbl=1;backgroundOutline=1;size=15;" parent="1" vertex="1">
          <mxGeometry x="920" y="520" width="60" height="80" as="geometry" />
        </mxCell>
        <mxCell id="PjFeJk9aAy8ltDYwzz_5-45" style="edgeStyle=orthogonalEdgeStyle;rounded=0;orthogonalLoop=1;jettySize=auto;html=1;exitX=1;exitY=0.5;exitDx=0;exitDy=0;entryX=0;entryY=0.5;entryDx=0;entryDy=0;entryPerimeter=0;" parent="1" source="PjFeJk9aAy8ltDYwzz_5-19" target="PjFeJk9aAy8ltDYwzz_5-44" edge="1">
          <mxGeometry relative="1" as="geometry" />
        </mxCell>
        <mxCell id="PjFeJk9aAy8ltDYwzz_5-46" value="Dispatch Details" style="text;html=1;align=center;verticalAlign=middle;resizable=0;points=[];autosize=1;strokeColor=none;fillColor=none;" parent="1" vertex="1">
          <mxGeometry x="800" y="530" width="110" height="30" as="geometry" />
        </mxCell>
        <mxCell id="PjFeJk9aAy8ltDYwzz_5-48" value="Ready For Delivery" style="text;html=1;align=center;verticalAlign=middle;resizable=0;points=[];autosize=1;strokeColor=none;fillColor=none;" parent="1" vertex="1">
          <mxGeometry x="570" y="648" width="130" height="30" as="geometry" />
        </mxCell>
        <mxCell id="PjFeJk9aAy8ltDYwzz_5-51" value="Dispatch Notification and ETA" style="text;html=1;align=center;verticalAlign=middle;resizable=0;points=[];autosize=1;strokeColor=none;fillColor=none;" parent="1" vertex="1">
          <mxGeometry x="180" y="648" width="180" height="30" as="geometry" />
        </mxCell>
        <mxCell id="PjFeJk9aAy8ltDYwzz_5-56" value="Blood availability." style="text;html=1;align=center;verticalAlign=middle;resizable=0;points=[];autosize=1;strokeColor=none;fillColor=none;" parent="1" vertex="1">
          <mxGeometry x="200" y="358" width="120" height="30" as="geometry" />
        </mxCell>
      </root>
    </mxGraphModel>
  </diagram>
</mxfile>
